<?xml version="1.0" standalone="no"?>
<!DOCTYPE svg PUBLIC "-//W3C//DTD SVG 20010904//EN"
 "http://www.w3.org/TR/2001/REC-SVG-20010904/DTD/svg10.dtd">
<svg version="1.0" xmlns="http://www.w3.org/2000/svg"
 width="512.000000pt" height="512.000000pt" viewBox="0 0 512.000000 512.000000"
 preserveAspectRatio="xMidYMid meet">

<style>
    path {
        fill: black;
    }
    @media (prefers-color-scheme: dark) {
        path { fill: white; }
    }
</style>

<g transform="translate(0.000000,512.000000) scale(0.100000,-0.100000)"
fill="#000000" stroke="none">
<path d="M3678 5103 c-37 -23 -48 -53 -48 -128 l0 -63 -197 -4 c-190 -3 -200
-4 -255 -30 -75 -35 -141 -104 -168 -174 -20 -55 -20 -65 -18 -987 l3 -932 23
-43 c35 -66 88 -119 150 -149 l57 -28 830 0 830 0 63 34 c70 38 100 69 140
145 l27 51 0 935 0 935 -24 53 c-29 65 -113 143 -178 168 -38 14 -89 18 -239
22 l-192 4 -4 73 c-3 61 -7 78 -27 99 -33 35 -85 44 -126 21 -43 -22 -55 -52
-55 -130 l0 -65 -214 0 -214 0 -4 75 c-3 64 -7 79 -29 101 -33 33 -94 41 -131
17z m-48 -478 c0 -78 12 -108 55 -130 41 -23 93 -14 126 21 20 21 24 38 27
100 l4 74 214 0 214 0 0 -65 c0 -78 12 -108 55 -130 41 -23 93 -14 126 21 20
21 24 38 27 100 l4 74 177 0 c147 0 180 -3 200 -16 52 -37 51 -18 51 -945 0
-955 3 -911 -65 -943 -29 -14 -121 -16 -789 -16 -631 0 -762 2 -791 14 -68 29
-65 -21 -65 951 0 801 1 879 17 905 9 16 26 33 37 39 12 5 101 10 199 10 l177
1 0 -65z"/>
<path d="M3659 4021 c-49 -49 -36 -133 25 -166 27 -14 71 -16 383 -13 l351 3
26 24 c51 48 40 142 -20 170 -17 7 -140 11 -380 11 l-356 0 -29 -29z"/>
<path d="M3659 3381 c-49 -49 -36 -133 25 -166 27 -14 71 -16 383 -13 l351 3
26 24 c51 48 40 142 -20 170 -17 7 -140 11 -380 11 l-356 0 -29 -29z"/>
<path d="M2005 4033 c-121 -44 -205 -118 -258 -231 -30 -63 -32 -74 -32 -177
0 -105 2 -113 34 -180 52 -107 149 -191 264 -229 16 -5 17 -22 15 -223 l-3
-218 -595 -5 c-593 -5 -595 -5 -652 -28 -152 -61 -259 -169 -320 -322 -22 -53
-23 -69 -28 -490 l-5 -435 -105 0 -105 0 -5 180 c-3 114 -9 188 -17 201 -29
51 -120 55 -164 8 l-24 -26 -3 -459 c-3 -513 -4 -507 65 -535 43 -19 93 -5
123 33 18 24 20 40 20 204 l0 179 110 0 109 0 3 -433 c3 -420 4 -434 25 -492
64 -168 212 -299 384 -340 95 -22 2492 -22 2587 0 196 46 360 216 401 413 7
33 11 201 11 452 l0 400 105 0 105 0 0 -166 c0 -188 9 -222 65 -248 41 -20 49
-20 90 0 65 30 65 33 65 518 0 480 -1 491 -59 520 -38 20 -64 20 -102 0 -50
-25 -59 -63 -59 -249 l0 -165 -105 0 -104 0 -3 344 -3 344 -24 26 c-49 52
-145 40 -170 -23 -8 -18 -12 -299 -13 -871 l-3 -845 -26 -55 c-37 -80 -81
-125 -157 -162 l-67 -33 -1235 0 c-1172 0 -1238 1 -1288 18 -70 25 -152 101
-183 169 l-24 53 0 935 0 935 25 50 c31 64 91 124 155 155 l50 25 881 5 c960
5 899 1 931 63 21 41 10 90 -28 121 -30 26 -31 26 -225 26 l-194 0 0 225 c0
200 2 225 16 225 33 0 135 64 183 115 201 212 140 546 -123 675 -62 31 -80 35
-165 37 -73 3 -108 -1 -146 -14z m224 -219 c123 -62 155 -217 66 -322 -46 -53
-89 -72 -167 -72 -86 0 -144 35 -182 111 -43 88 -30 176 39 244 68 69 156 83
244 39z"/>
<path d="M1365 2113 c-121 -44 -205 -118 -258 -231 -30 -63 -32 -74 -32 -177
0 -105 2 -113 34 -180 132 -270 485 -327 690 -110 201 212 140 546 -123 675
-62 31 -80 35 -165 37 -73 3 -108 -1 -146 -14z m224 -219 c132 -66 157 -229
51 -334 -105 -106 -268 -81 -334 51 -43 88 -30 176 39 244 68 69 156 83 244
39z"/>
<path d="M2645 2113 c-121 -44 -205 -118 -258 -231 -30 -63 -32 -74 -32 -177
0 -105 2 -113 34 -180 132 -270 485 -327 690 -110 201 212 140 546 -123 675
-62 31 -80 35 -165 37 -73 3 -108 -1 -146 -14z m224 -219 c132 -66 157 -229
51 -334 -105 -106 -268 -81 -334 51 -43 88 -30 176 39 244 68 69 156 83 244
39z"/>
<path d="M1537 830 c-38 -30 -52 -80 -33 -123 28 -69 12 -67 631 -67 502 0
560 2 585 17 58 34 68 116 21 164 l-29 29 -575 0 c-561 0 -575 0 -600 -20z"/>
</g>
</svg>
